<svg id="Layer_1" enable-background="new 0 0 512 512" height="512" viewBox="0 0 512 512" width="512" xmlns="http://www.w3.org/2000/svg"><g><path d="m450.503 296c-11.046 0-20-8.954-20-20v-156c0-44.112-35.888-80-80-80h-184c-44.112 0-80 35.888-80 80v156c-1.056 26.536-38.953 26.516-40 0v-156c0-66.168 53.832-120 120-120h184c66.168 0 120 53.832 120 120v156c0 11.046-8.954 20-20 20zm-61-112c0-11.046-8.954-20-20-20h-34c-16.542 0-30-13.458-30-30v-34c-1.056-26.536-38.953-26.516-40 0v34c0 38.598 31.402 70 70 70h34c11.046 0 20-8.954 20-20z" fill="#0023c4"/><path d="m94.259 512c-13.294 0-36.463-2.976-58.01-11.362-10.294-4.006-15.391-15.599-11.384-25.892 4.006-10.294 15.6-15.39 25.892-11.384 17.519 6.819 35.588 8.638 43.502 8.638 9.186 0 17.244-7.243 17.244-15.5 0-8.402-9.833-15.5-21.473-15.5-36.799 0-64.549-23.859-64.549-55.5 0-30.603 25.162-55.5 56.09-55.5 16.599 0 33.767 3.594 54.028 11.31 10.323 3.931 15.504 15.485 11.574 25.808-3.931 10.322-15.485 15.507-25.808 11.573-20.458-7.79-32.509-8.691-39.795-8.691-8.872 0-16.09 6.953-16.09 15.5 0 8.837 10.554 15.5 24.549 15.5 53.246-.222 82.245 58.609 44.085 95.149-10.831 10.221-24.986 15.851-39.855 15.851zm394.244-66.5c0-20.126-16.374-36.5-36.5-36.5h-16.5c-26.536 1.056-26.516 38.953 0 40h12.77c-5.279 32.421-51.737 29.535-52.77-3.5v-50c.318-25.905 32.419-35.598 48.31-16.098 6.849 8.666 19.428 10.136 28.092 3.288 8.666-6.851 10.137-19.428 3.288-28.093-12.67-16.028-32.555-25.597-53.19-25.597-36.668 0-66.5 29.832-66.5 66.5v50c0 36.668 29.832 66.5 66.5 66.5s66.5-29.832 66.5-66.5zm-191.511 33.49c.139-.444 29.635-124.361 29.635-124.361 2.556-10.746-4.083-21.529-14.828-24.086-10.749-2.552-21.529 4.083-24.086 14.828l-29.067 122.187c-1.044 2.918-2.77 4.45-5.023 4.442-2.235-.009-4.005-1.607-5.025-4.519l-27.933-121.947c-2.466-10.768-13.196-17.494-23.96-15.029-10.767 2.466-17.496 13.193-15.03 23.961 0 0 28.35 123.696 28.487 124.145 6.149 20.203 23.146 33.309 43.302 33.389.063.001.123.001.186.001 20.056-.001 37.058-12.941 43.342-33.011z" fill="#ff5cf4"/></g></svg>